<svg xmlns="http://www.w3.org/2000/svg" viewBox="0 0 800 800" width="100%" height="100%">
  <defs>
    <!-- Glow Filters -->
    <filter id="glow-cyan" x="-20%" y="-20%" width="140%" height="140%">
      <feGaussianBlur stdDeviation="3" result="blur" />
      <feMerge>
        <feMergeNode in="blur" />
        <feMergeNode in="SourceGraphic" />
      </feMerge>
    </filter>
    <filter id="glow-orange" x="-20%" y="-20%" width="140%" height="140%">
      <feGaussianBlur stdDeviation="3" result="blur" />
      <feMerge>
        <feMergeNode in="blur" />
        <feMergeNode in="SourceGraphic" />
      </feMerge>
    </filter>
    <filter id="glow-red" x="-30%" y="-30%" width="160%" height="160%">
      <feGaussianBlur stdDeviation="4" result="blur" />
      <feMerge>
        <feMergeNode in="blur" />
        <feMergeNode in="SourceGraphic" />
      </feMerge>
    </filter>

    <!-- Hologram Radial Background -->
    <radialGradient id="holo-glow" cx="50%" cy="50%" r="50%">
      <stop offset="0%" stop-color="#00f3ff" stop-opacity="0.12" />
      <stop offset="70%" stop-color="#00f3ff" stop-opacity="0.02" />
      <stop offset="100%" stop-color="#00f3ff" stop-opacity="0" />
    </radialGradient>

    <!-- Technical Grid Pattern -->
    <pattern id="grid" width="40" height="40" patternUnits="userSpaceOnUse">
      <path d="M 40 0 L 0 0 0 40" fill="none" stroke="#00f3ff" stroke-width="0.5" stroke-opacity="0.05" />
    </pattern>

    <!-- Outer Ring Mask for Spokes -->
    <mask id="ring-mask">
      <circle cx="400" cy="360" r="200" fill="#ffffff" />
      <circle cx="400" cy="360" r="185" fill="#000000" />
    </mask>
  </defs>

  <!-- Deep Space Background -->
  <rect width="800" height="800" fill="#030712" />
  <rect width="800" height="800" fill="url(#grid)" />

  <!-- Ambient Starfield (Subtle Vector Stars) -->
  <g opacity="0.6">
    <circle cx="120" cy="150" r="1" fill="#ffffff" opacity="0.3" />
    <circle cx="320" cy="80" r="1" fill="#00f3ff" opacity="0.5" />
    <circle cx="710" cy="180" r="1.5" fill="#ffffff" opacity="0.4" />
    <circle cx="650" cy="620" r="1" fill="#ff7b00" opacity="0.3" />
    <circle cx="180" cy="710" r="1" fill="#ffffff" opacity="0.5" />
    <circle cx="90" cy="480" r="1.5" fill="#00f3ff" opacity="0.3" />
    <circle cx="730" cy="420" r="1" fill="#ffffff" opacity="0.2" />
  </g>

  <!-- Holographic Projection Cone/Aura -->
  <circle cx="400" cy="360" r="280" fill="url(#holo-glow)" />

  <!-- ==================== DIALS & RADAR HUD SYSTEM ==================== -->
  <g id="hud-metadata" stroke="#ff7b00" fill="none" stroke-opacity="0.4">
    <!-- Outer Compass & Telemetry Rings -->
    <circle cx="400" cy="360" r="290" stroke-width="1" stroke-dasharray="4, 12" />
    <circle cx="400" cy="360" r="275" stroke-width="1.5" stroke-dasharray="200, 20, 10, 20" />
    <circle cx="400" cy="360" r="260" stroke-width="0.5" stroke-opacity="0.2" />
    
    <!-- Degree Ticks on Outer Ring -->
    <g stroke-width="1" stroke-opacity="0.6">
      <line x1="400" y1="66" x2="400" y2="74" />
      <line x1="400" y1="646" x2="400" y2="654" />
      <line x1="110" y1="360" x2="118" y2="360" />
      <line x1="682" y1="360" x2="690" y2="360" />
      <line x1="195" y1="155" x2="202" y2="162" />
      <line x1="605" y1="155" x2="598" y2="162" />
      <line x1="195" y1="565" x2="202" y2="558" />
      <line x1="605" y1="565" x2="598" y2="558" />
    </g>

    <!-- Heading Indicator Tape (Top) -->
    <path d="M 300,45 L 500,45" stroke-width="1" />
    <path d="M 350,45 L 350,50 M 400,45 L 400,55 M 450,45 L 450,50" stroke-width="1.5" />
    <text x="400" y="38" fill="#ff7b00" font-family="monospace" font-size="10" text-anchor="middle" letter-spacing="1">000</text>
    <text x="350" y="38" fill="#ff7b00" font-family="monospace" font-size="8" text-anchor="middle" opacity="0.7">350</text>
    <text x="450" y="38" fill="#ff7b00" font-family="monospace" font-size="8" text-anchor="middle" opacity="0.7">010</text>
    <polygon points="400,48 396,54 404,54" fill="#ff7b00" />
  </g>


  <!-- ==================== SPACE STATION WIREFRAME ==================== -->
  <!-- Station Group (Rotated to match Elite's typical angular alignment) -->
  <g id="space-station" transform="rotate(12 400 360)">
    
    <!-- Outer Habitation/Infrastructure Rings (Orbis/Ocellus Style) -->
    <circle cx="400" cy="360" r="200" stroke="#00f3ff" stroke-opacity="0.25" stroke-width="1" fill="none" />
    <circle cx="400" cy="360" r="192.5" stroke="#00f3ff" stroke-opacity="0.4" stroke-width="1" stroke-dasharray="5, 8" fill="none" />
    <circle cx="400" cy="360" r="185" stroke="#00f3ff" stroke-opacity="0.3" stroke-width="1.5" fill="none" />

    <!-- Radial Truss Spokes (Generated via Mask) -->
    <g mask="url(#ring-mask)" stroke="#00f3ff" stroke-opacity="0.35" stroke-width="1.5">
      <line x1="400" y1="100" x2="400" y2="620" />
      <line x1="140" y1="360" x2="660" y2="360" />
      <line x1="400" y1="360" x2="400" y2="800" transform="rotate(22.5 400 360)" />
      <line x1="400" y1="360" x2="400" y2="800" transform="rotate(45 400 360)" />
      <line x1="400" y1="360" x2="400" y2="800" transform="rotate(67.5 400 360)" />
      <line x1="400" y1="360" x2="400" y2="800" transform="rotate(90 400 360)" />
      <line x1="400" y1="360" x2="400" y2="800" transform="rotate(112.5 400 360)" />
      <line x1="400" y1="360" x2="400" y2="800" transform="rotate(135 400 360)" />
      <line x1="400" y1="360" x2="400" y2="800" transform="rotate(157.5 400 360)" />
      <line x1="400" y1="360" x2="400" y2="800" transform="rotate(180 400 360)" />
      <line x1="400" y1="360" x2="400" y2="800" transform="rotate(202.5 400 360)" />
      <line x1="400" y1="360" x2="400" y2="800" transform="rotate(225 400 360)" />
      <line x1="400" y1="360" x2="400" y2="800" transform="rotate(247.5 400 360)" />
      <line x1="400" y1="360" x2="400" y2="800" transform="rotate(270 400 360)" />
      <line x1="400" y1="360" x2="400" y2="800" transform="rotate(292.5 400 360)" />
      <line x1="400" y1="360" x2="400" y2="800" transform="rotate(315 400 360)" />
      <line x1="400" y1="360" x2="400" y2="800" transform="rotate(337.5 400 360)" />
    </g>

    <!-- Outer Ring Structural Reinforcements (Zig-Zag Truss) -->
    <polygon points="400,160 415,185 430,160 445,185 460,160 475,185 490,160 505,185 520,160" fill="none" stroke="#00f3ff" stroke-opacity="0.2" stroke-width="1" transform="rotate(0 400 360)" />
    <polygon points="400,160 415,185 430,160 445,185 460,160 475,185 490,160 505,185 520,160" fill="none" stroke="#00f3ff" stroke-opacity="0.2" stroke-width="1" transform="rotate(90 400 360)" />
    <polygon points="400,160 415,185 430,160 445,185 460,160 475,185 490,160 505,185 520,160" fill="none" stroke="#00f3ff" stroke-opacity="0.2" stroke-width="1" transform="rotate(180 400 360)" />
    <polygon points="400,160 415,185 430,160 445,185 460,160 475,185 490,160 505,185 520,160" fill="none" stroke="#00f3ff" stroke-opacity="0.2" stroke-width="1" transform="rotate(270 400 360)" />

    <!-- Coriolis Octagonal Hull (Primary Outer Wireframe) -->
    <polygon points="539,417 457,499 343,499 261,417 261,303 343,221 457,221 539,303" 
             fill="none" stroke="#00f3ff" stroke-width="2" filter="url(#glow-cyan)" />
    
    <!-- Inner Facet Bevel Octagon -->
    <polygon points="524,411 451,484 349,484 276,411 276,309 349,236 451,236 524,309" 
             fill="none" stroke="#00f3ff" stroke-opacity="0.5" stroke-width="1" />

    <!-- Central Docking Face (Square Projection) -->
    <rect x="345" y="305" width="110" height="110" fill="none" stroke="#00f3ff" stroke-width="1.5" />
    <rect x="350" y="310" width="100" height="100" fill="none" stroke="#00f3ff" stroke-opacity="0.3" stroke-width="1" />

    <!-- Cuboctahedron Facet Edge Connectors (3D Orthographic Projection Lines) -->
    <line x1="345" y1="305" x2="343" y2="221" stroke="#00f3ff" stroke-width="1.5" /> <!-- TL Outer -->
    <line x1="345" y1="305" x2="261" y2="303" stroke="#00f3ff" stroke-width="1.5" /> <!-- TL Side -->
    
    <line x1="455" y1="305" x2="457" y2="221" stroke="#00f3ff" stroke-width="1.5" /> <!-- TR Outer -->
    <line x1="455" y1="305" x2="539" y2="303" stroke="#00f3ff" stroke-width="1.5" /> <!-- TR Side -->
    
    <line x1="455" y1="415" x2="457" y2="499" stroke="#00f3ff" stroke-width="1.5" /> <!-- BR Outer -->
    <line x1="455" y1="415" x2="539" y2="417" stroke="#00f3ff" stroke-width="1.5" /> <!-- BR Side -->
    
    <line x1="345" y1="415" x2="343" y2="499" stroke="#00f3ff" stroke-width="1.5" /> <!-- BL Outer -->
    <line x1="345" y1="415" x2="261" y2="417" stroke="#00f3ff" stroke-width="1.5" /> <!-- BL Side -->

    <!-- ==================== HULL PANEL SUBDIVISIONS ==================== -->
    <!-- Top Facet Panels -->
    <g stroke="#00f3ff" stroke-opacity="0.4" stroke-width="1">
      <line x1="372" y1="221" x2="372" y2="305" />
      <line x1="400" y1="221" x2="400" y2="305" stroke-dasharray="4,4" />
      <line x1="428" y1="221" x2="428" y2="305" />
      <line x1="345" y1="249" x2="455" y2="249" />
      <line x1="345" y1="277" x2="455" y2="277" />
    </g>

    <!-- Bottom Facet Panels -->
    <g stroke="#00f3ff" stroke-opacity="0.4" stroke-width="1">
      <line x1="372" y1="415" x2="372" y2="499" />
      <line x1="400" y1="415" x2="400" y2="499" stroke-dasharray="4,4" />
      <line x1="428" y1="415" x2="428" y2="499" />
      <line x1="345" y1="443" x2="455" y2="443" />
      <line x1="345" y1="471" x2="455" y2="471" />
    </g>

    <!-- Left Facet Panels -->
    <g stroke="#00f3ff" stroke-opacity="0.4" stroke-width="1">
      <line x1="261" y1="331" x2="345" y2="331" />
      <line x1="261" y1="360" x2="345" y2="360" stroke-dasharray="4,4" />
      <line x1="261" y1="387" x2="345" y2="387" />
      <line x1="289" y1="303" x2="289" y2="415" />
      <line x1="317" y1="303" x2="317" y2="415" />
    </g>

    <!-- Right Facet Panels -->
    <g stroke="#00f3ff" stroke-opacity="0.4" stroke-width="1">
      <line x1="455" y1="331" x2="539" y2="331" />
      <line x1="455" y1="360" x2="539" y2="360" stroke-dasharray="4,4" />
      <line x1="455" y1="387" x2="539" y2="387" />
      <line x1="483" y1="303" x2="483" y2="415" />
      <line x1="511" y1="303" x2="511" y2="415" />
    </g>

    <!-- Corner Triangles Structural Ribs -->
    <!-- Top-Left Corner -->
    <polygon points="335,295 334,235 275,295" fill="none" stroke="#00f3ff" stroke-opacity="0.3" stroke-width="1" />
    <polygon points="325,285 324,250 290,285" fill="none" stroke="#00f3ff" stroke-opacity="0.2" stroke-width="1" />
    <!-- Top-Right Corner -->
    <polygon points="465,295 466,235 525,295" fill="none" stroke="#00f3ff" stroke-opacity="0.3" stroke-width="1" />
    <polygon points="475,285 476,250 510,285" fill="none" stroke="#00f3ff" stroke-opacity="0.2" stroke-width="1" />
    <!-- Bottom-Right Corner -->
    <polygon points="465,425 466,485 525,425" fill="none" stroke="#00f3ff" stroke-opacity="0.3" stroke-width="1" />
    <polygon points="475,435 476,470 510,435" fill="none" stroke="#00f3ff" stroke-opacity="0.2" stroke-width="1" />
    <!-- Bottom-Left Corner -->
    <polygon points="335,425 334,485 275,425" fill="none" stroke="#00f3ff" stroke-opacity="0.3" stroke-width="1" />
    <polygon points="325,435 324,470 290,435" fill="none" stroke="#00f3ff" stroke-opacity="0.2" stroke-width="1" />


    <!-- ==================== THE DOCKING PORT ("THE SLOT") ==================== -->
    <!-- Outer Entry Guide Rings (Concentric circles around slot) -->
    <circle cx="400" cy="360" r="32" fill="none" stroke="#00f3ff" stroke-opacity="0.4" stroke-width="1" />
    <circle cx="400" cy="360" r="24" fill="none" stroke="#00f3ff" stroke-opacity="0.6" stroke-width="1" />

    <!-- The Toast Rack (3D Projected Entry Cage) -->
    <!-- Outer Frame -->
    <rect x="356" y="342" width="88" height="36" rx="4" fill="none" stroke="#00f3ff" stroke-width="1.5" filter="url(#glow-cyan)" />
    <!-- Middle Frame -->
    <rect x="368" y="348" width="64" height="24" rx="3" fill="none" stroke="#00f3ff" stroke-opacity="0.7" stroke-width="1" />
    <!-- Inner Frame (Actual Slot Boundary) -->
    <rect x="380" y="354" width="40" height="12" rx="1" fill="#002b3d" fill-opacity="0.8" stroke="#00f3ff" stroke-width="2" />

    <!-- Longitudinal Cage Bars -->
    <line x1="356" y1="342" x2="380" y2="354" stroke="#00f3ff" stroke-width="1.5" />
    <line x1="444" y1="342" x2="420" y2="354" stroke="#00f3ff" stroke-width="1.5" />
    <line x1="356" y1="378" x2="380" y2="366" stroke="#00f3ff" stroke-width="1.5" />
    <line x1="444" y1="378" x2="420" y2="366" stroke="#00f3ff" stroke-width="1.5" />

    <!-- Intermediate Cage Support Lines -->
    <line x1="368" y1="342" x2="368" y2="378" stroke="#00f3ff" stroke-opacity="0.5" stroke-width="1" />
    <line x1="432" y1="342" x2="432" y2="378" stroke="#00f3ff" stroke-opacity="0.5" stroke-width="1" />
    <line x1="400" y1="342" x2="400" y2="348" stroke="#00f3ff" stroke-opacity="0.8" stroke-width="1" />
    <line x1="400" y1="372" x2="400" y2="378" stroke="#00f3ff" stroke-opacity="0.8" stroke-width="1" />

    <!-- Red/Green Orientation Lights (Classic Elite Detail) -->
    <!-- Port Side (Red - Left of Slot) -->
    <circle cx="356" cy="342" r="2.5" fill="#ff3b30" filter="url(#glow-red)" />
    <circle cx="356" cy="360" r="2" fill="#ff3b30" filter="url(#glow-red)" />
    <circle cx="356" cy="378" r="2.5" fill="#ff3b30" filter="url(#glow-red)" />
    <!-- Starboard Side (Green - Right of Slot) -->
    <circle cx="444" cy="342" r="2.5" fill="#4cd964" filter="url(#glow-cyan)" />
    <circle cx="444" cy="360" r="2" fill="#4cd964" filter="url(#glow-cyan)" />
    <circle cx="444" cy="378" r="2.5" fill="#4cd964" filter="url(#glow-cyan)" />

    <!-- Active Landing Pad Indicators (Glowing Orange Decals on Hull) -->
    <rect x="360" y="280" width="10" height="5" fill="#ff7b00" fill-opacity="0.8" filter="url(#glow-orange)" transform="rotate(15 360 280)" />
    <rect x="430" y="470" width="12" height="4" fill="#ff7b00" fill-opacity="0.8" filter="url(#glow-orange)" transform="rotate(-30 430 470)" />
    <circle cx="290" cy="350" r="3" fill="#ff7b00" filter="url(#glow-orange)" />
  </g>


  <!-- ==================== HUD OVERLAYS & TELEMETRY ==================== -->
  
  <!-- Target Lock Reticle (Cyan) -->
  <g id="target-reticle" stroke="#00f3ff" fill="none" stroke-width="1.5" filter="url(#glow-cyan)">
    <!-- Corners around the station -->
    <path d="M 170,360 L 150,360 L 150,310" />
    <path d="M 150,410 L 150,460 L 170,460" />
    <path d="M 630,360 L 650,360 L 650,410" />
    <path d="M 650,310 L 650,260 L 630,260" />
    <!-- Reticle Ticks -->
    <line x1="400" y1="110" x2="400" y2="130" />
    <line x1="400" y1="590" x2="400" y2="610" />
    <!-- Target Lock Text -->
    <text x="160" y="250" fill="#00f3ff" font-family="monospace" font-size="12" font-weight="bold" letter-spacing="1">LOCK: CORIOLIS CLASS</text>
  </g>

  <!-- Left Hologram Panel (Navigation & Info) -->
  <g id="left-panel" transform="translate(20, 180)">
    <!-- Panel Background -->
    <polygon points="0,40 120,40 140,60 140,280 120,300 0,300" fill="#ff7b00" fill-opacity="0.03" stroke="#ff7b00" stroke-opacity="0.4" stroke-width="1" />
    <polygon points="0,40 120,40 140,60 140,280 120,300 0,300" fill="none" stroke="#ff7b00" stroke-opacity="0.8" stroke-width="1.5" filter="url(#glow-orange)" stroke-dasharray="300, 20, 10, 5, 40, 400" />
    
    <!-- Header -->
    <text x="15" y="65" fill="#ff7b00" font-family="monospace" font-size="13" font-weight="bold" letter-spacing="1" filter="url(#glow-orange)">NAVIGATION</text>
    <line x1="15" y1="75" x2="125" y2="75" stroke="#ff7b00" stroke-opacity="0.6" stroke-width="1" />

    <!-- Telemetry Data -->
    <g fill="#ff7b00" font-family="monospace" font-size="10" opacity="0.8">
      <text x="15" y="100">SYS: LTT 857</text>
      <text x="15" y="120">STATION: G-492</text>
      <text x="15" y="140">DIST: 1.24 KM</text>
      <text x="15" y="160">SPEED: 98 M/S</text>
      <text x="15" y="180" fill="#00f3ff" filter="url(#glow-cyan)" font-weight="bold">DOCKING: GRANTED</text>
    </g>

    <!-- Mini Vector Graphic (Planet & Orbit) -->
    <circle cx="70" cy="240" r="22" fill="none" stroke="#ff7b00" stroke-opacity="0.4" stroke-width="1" />
    <path d="M 35,250 Q 70,220 105,250" fill="none" stroke="#ff7b00" stroke-opacity="0.8" stroke-width="1.5" />
    <circle cx="95" cy="232" r="3" fill="#ff7b00" filter="url(#glow-orange)" />
  </g>

  <!-- Right Hologram Panel (Ship Status & Systems) -->
  <g id="right-panel" transform="translate(640, 180)">
    <!-- Panel Background -->
    <polygon points="140,40 20,40 0,60 0,280 20,300 140,300" fill="#ff7b00" fill-opacity="0.03" stroke="#ff7b00" stroke-opacity="0.4" stroke-width="1" />
    <polygon points="140,40 20,40 0,60 0,280 20,300 140,300" fill="none" stroke="#ff7b00" stroke-opacity="0.8" stroke-width="1.5" filter="url(#glow-orange)" stroke-dasharray="300, 20, 10, 5, 40, 400" />

    <!-- Header -->
    <text x="125" y="65" fill="#ff7b00" font-family="monospace" font-size="13" font-weight="bold" letter-spacing="1" text-anchor="end" filter="url(#glow-orange)">SHIP STATUS</text>
    <line x1="15" y1="75" x2="125" y2="75" stroke="#ff7b00" stroke-opacity="0.6" stroke-width="1" />

    <!-- Ship Status Data -->
    <g fill="#ff7b00" font-family="monospace" font-size="10" opacity="0.8">
      <text x="15" y="100">SHLD: 100%</text>
      <text x="15" y="120">HULL: 100%</text>
      <text x="15" y="140">FUEL: 98.4%</text>
      <text x="15" y="160">SYS: 4.00 MW</text>
      <text x="15" y="180">ENG: 2.50 MW</text>
    </g>

    <!-- Mini Wireframe Ship (Cobra Mk III Inspired) -->
    <g transform="translate(70, 240)" stroke="#ff7b00" fill="none" stroke-width="1.2">
      <polygon points="0,-20 -25,10 0,0 25,10" />
      <line x1="0" y1="-20" x2="0" y2="0" />
      <line x1="-12" y1="-5" x2="0" y2="0" />
      <line x1="12" y1="-5" x2="0" y2="0" />
      <circle cx="0" cy="0" r="28" stroke-opacity="0.2" stroke-dasharray="2,4" />
    </g>
  </g>

  <!-- No-Fire Zone Warning Indicator (Bottom Center-ish) -->
  <g id="warning-indicator" transform="translate(400, 595)">
    <rect x="-80" y="-12" width="160" height="24" fill="#ff7b00" fill-opacity="0.1" stroke="#ff7b00" stroke-opacity="0.8" stroke-width="1.5" rx="3" filter="url(#glow-orange)" />
    <text x="0" y="4" fill="#ff7b00" font-family="monospace" font-size="11" font-weight="bold" text-anchor="middle" letter-spacing="2" filter="url(#glow-orange)">NO-FIRE ZONE</text>
  </g>


  <!-- ==================== 3D RADAR HUD (BOTTOM) ==================== -->
  <g id="radar-system" transform="translate(400, 715)">
    <!-- Radar Dish Projection (Perspective Ellipses) -->
    <ellipse cx="0" cy="0" rx="160" ry="50" fill="#ff7b00" fill-opacity="0.02" stroke="#ff7b00" stroke-opacity="0.3" stroke-width="1" />
    <ellipse cx="0" cy="0" rx="120" ry="37.5" fill="none" stroke="#ff7b00" stroke-opacity="0.2" stroke-width="1" />
    <ellipse cx="0" cy="0" rx="80" ry="25" fill="none" stroke="#ff7b00" stroke-opacity="0.15" stroke-width="1" />
    <ellipse cx="0" cy="0" rx="40" ry="12.5" fill="none" stroke="#ff7b00" stroke-opacity="0.1" stroke-width="1" />

    <!-- Radar Cross Grid -->
    <line x1="-160" y1="0" x2="160" y2="0" stroke="#ff7b00" stroke-opacity="0.2" stroke-width="1" />
    <line x1="0" y1="-50" x2="0" y2="50" stroke="#ff7b00" stroke-opacity="0.2" stroke-width="1" />
    <!-- 45-Degree Radar Spokes -->
    <line x1="-113" y1="-35" x2="113" y2="35" stroke="#ff7b00" stroke-opacity="0.15" stroke-width="1" />
    <line x1="-113" y1="35" x2="113" y2="-35" stroke="#ff7b00" stroke-opacity="0.15" stroke-width="1" />

    <!-- Player Ship Icon (Center of Radar) -->
    <g transform="translate(0, 0)" fill="#ff7b00" stroke="#ff7b00" stroke-width="1" filter="url(#glow-orange)">
      <polygon points="0,-8 -6,6 0,3 6,6" />
      <circle cx="0" cy="0" r="12" fill="none" stroke-opacity="0.5" stroke-dasharray="2,2" />
    </g>

    <!-- Radar Target Blip 1: The Space Station (Massive Friendly Target) -->
    <g transform="translate(0, -30)">
      <!-- Vertical Projection Stem -->
      <line x1="0" y1="0" x2="0" y2="30" stroke="#00f3ff" stroke-opacity="0.8" stroke-width="1.5" stroke-dasharray="2,2" />
      <!-- Target Marker -->
      <circle cx="0" cy="0" r="5" fill="#00f3ff" filter="url(#glow-cyan)" />
      <circle cx="0" cy="0" r="9" fill="none" stroke="#00f3ff" stroke-opacity="0.5" stroke-width="1" />
    </g>

    <!-- Radar Target Blip 2: Approaching Ship (Hostile/Orange Target) -->
    <g transform="translate(90, -20)">
      <!-- Vertical Projection Stem -->
      <line x1="0" y1="0" x2="0" y2="20" stroke="#ff7b00" stroke-opacity="0.7" stroke-width="1" />
      <!-- Target Marker -->
      <polygon points="0,-4 -4,3 4,3" fill="#ff7b00" filter="url(#glow-orange)" />
    </g>

    <!-- Radar Target Blip 3: Escaping Ship (Neutral Target) -->
    <g transform="translate(-70, 15)">
      <!-- Vertical Projection Stem -->
      <line x1="0" y1="0" x2="0" y2="-15" stroke="#ff7b00" stroke-opacity="0.5" stroke-width="1" />
      <!-- Target Marker -->
      <circle cx="0" cy="0" r="3" fill="#ff7b00" fill-opacity="0.7" />
    </g>
  </g>

  <!-- Corner HUD Accents / Brackets -->
  <g stroke="#ff7b00" fill="none" stroke-width="2" stroke-opacity="0.8" filter="url(#glow-orange)">
    <!-- Top Left -->
    <path d="M 30,80 L 30,30 L 80,30" />
    <line x1="30" y1="45" x2="45" y2="30" />
    <!-- Top Right -->
    <path d="M 770,80 L 770,30 L 720,30" />
    <line x1="770" y1="45" x2="755" y2="30" />
    <!-- Bottom Left -->
    <path d="M 30,720 L 30,770 L 80,770" />
    <line x1="30" y1="755" x2="45" y2="770" />
    <!-- Bottom Right -->
    <path d="M 770,720 L 770,770 L 720,770" />
    <line x1="770" y1="755" x2="755" y2="770" />
  </g>

  <!-- Fine Print / Technical Decals -->
  <g fill="#ff7b00" font-family="monospace" font-size="8" opacity="0.5">
    <text x="40" y="760">HUD v4.0.8</text>
    <text x="760" y="760" text-anchor="end">CO-OP MULTI-GRID</text>
    <text x="400" y="790" text-anchor="middle" letter-spacing="3">SENSOR RANGE: 10KM</text>
  </g>
</svg>